<svg xmlns="http://www.w3.org/2000/svg" style="fill: currentcolor; color: currentcolor; width: 0.5em; height: 0.5em; margin: 0px 0px 0px 0.02em;" viewBox="0 0 24 24"><path fill-rule="evenodd" d="M11.08 15.54c-1.06 0-1.68-.81-1.68-2 0-2.37 2.11-2.8 4.12-2.8 0 1.74-.05 4.8-2.44 4.8zm5.23 2.56a.57.57 0 0 1-.66.06c-.92-.76-1.08-1.12-1.59-1.85-2.54 3.22-8.7 2.84-8.7-2.3 0-4.61 4.65-5.5 8.15-5.48 0 0 .13-1.7-.33-2.37-.97-1.46-3.46-.6-3.78.94-.05.25-.23.5-.48.51l-2.69-.3c-.22-.04-.48-.22-.41-.57.62-3.26 3.56-4.24 6.2-4.24 1.34 0 3.06.4 4.16 1.38 1.85 1.62 1.06 6.86 1.22 9.08 0 1.3.54 1.87 1.05 2.57.18.25.21.55-.01.73L16.3 18.1zm3.12 1.74A16.09 16.09 0 0 1 2.3 18.5c-.25-.18-.42.14-.22.37 4.42 5.16 12.44 6.44 17.65 1.6.36-.33.05-.83-.31-.63zm.58 1.94c-.08.2.1.28.28.13 1.17-.98 1.47-3.04 1.23-3.34-.24-.29-2.29-.54-3.54.34-.2.13-.16.32.06.3.7-.1 2.27-.28 2.55.08.28.36-.31 1.83-.58 2.49z"/></svg>
