<svg xmlns="http://www.w3.org/2000/svg" style="fill: currentcolor; color: currentcolor; width: 0.5em; height: 0.5em; margin: 0px 0px 0px 0.02em;" viewBox="0 0 24 24"><path d="M11.93 5.172c2.57.08 4.725-2.715 4.364-5.172-2.4.165-4.824 2.686-4.363 5.172zm8.15 13.209c.65-.987.89-1.489 1.396-2.608-3.667-1.386-4.258-6.571-.627-8.558-1.11-1.383-2.664-2.182-4.13-2.182-1.943 0-2.762.925-4.109.925-1.389 0-2.445-.921-4.122-.921-1.65 0-3.406 1.003-4.515 2.713-1.568 2.41-1.3 6.94 1.238 10.806.907 1.376 2.119 2.93 3.7 2.944.656.006 1.093-.188 1.566-.398 1.424-.633 2.875-.655 4.297-.005.46.21.887.406 1.536.4 1.585-.01 2.865-1.733 3.77-3.116z"/></svg>
