<svg xmlns="http://www.w3.org/2000/svg" viewBox="0 0 256 256" xml:space="preserve"><path d="M73.3 200c.3-1.9.6-3.8.9-5.6 1.6-8.6 5.5-16.1 11.1-22.6 9.4-10.9 21.4-17.3 35.4-20.1 9.4-1.9 18.9-1.5 28.2 1.2.5.1 1 .2 1.8.4-2.2-3.2-4.3-6-6.4-8.9C125 117 105.5 89.7 86 62.3c-1.4-2-1.9-3.9-1.3-6.3 1.6-6.1 5.4-10.5 10.3-14.1 7.7-5.8 16.6-9.2 25.9-11.6 5.2-1.3 10.6-2 15.8-3.2 4.5-1.1 8.9-2.4 13.1-4.1 7-2.7 13.3-6.5 17.9-13 .7 3.7 1.7 7.4 2.1 11.1.4 3 .5 6.1.3 9.1-.7 12.3-5.6 22.4-15.4 30.1-6.6 5.2-14.2 7.6-22.3 8.6-4.9.6-9.8.8-14.8 1.1.1.2.2.6.4.9 9.4 16.5 18.8 32.9 28.2 49.4 9.2 16.2 18.5 32.3 27.7 48.5 2 3.4 4.2 6.7 5.7 10.4 4.4 10.8 4 21.8-.7 32.4-6.4 14.6-17.7 24.2-32.4 30-8.5 3.4-17.5 4.8-26.7 4.2-14.1-1-26.4-6-36-16.6-7.3-8.1-10.5-18.6-10.5-29.2.4-1.9 0 1.4 0 0z"/></svg>
