<svg xmlns="http://www.w3.org/2000/svg" style="fill: currentcolor; color: currentcolor; width: 0.5em; height: 0.5em; margin: 0px 0px 0px 0.02em;" viewBox="0 0 24 24"><path d="M21.744 9.815C19.836 1.261 8.393-1 3.55 6.64-.618 13.214 4 22 11.988 22c2.387 0 4.63-.83 6.394-2.304l2.252 2.252 1.224-1.224-2.252-2.253c1.983-2.407 2.823-5.586 2.138-8.656zm-3.508 7.297L16.4 15.275c-.786-.787-2.017.432-1.224 1.225L17 18.326C10.29 23.656.5 16 5.16 7.667c3.502-6.264 13.172-4.348 14.707 2.574.529 2.385-.06 4.987-1.63 6.87z"/><path d="M13.4 8.684a3.59 3.59 0 0 0-4.712 1.9 3.59 3.59 0 0 0 1.9 4.712 3.594 3.594 0 0 0 4.711-1.89 3.598 3.598 0 0 0-1.9-4.722zm-.737 3.591a.727.727 0 0 1-.965.384.727.727 0 0 1-.384-.965.727.727 0 0 1 .965-.384.73.73 0 0 1 .384.965z"/></svg>
