<svg version="1" xmlns="http://www.w3.org/2000/svg" width="933.333" height="933.333" viewBox="0 0 700.000000 700.000000"><path d="M326.5 1.1c-3.8.4-8.7 1-10.7 1.3-2.1.3-5.5.9-7.5 1.2-2.1.3-8.5 1.6-14.3 3-54.9 12.8-108 43.6-154.7 89.7l-10.2 10-7.3-4.8C105.4 90.7 94 80.3 80.3 64.1c-9.9-11.8-14.5-14.8-23.4-15.7-13.5-1.2-25.4 8.4-27.4 22.1-.3 2.2-1 6.2-1.5 9-.5 2.7-1.2 7.2-1.5 10-.3 2.7-.8 7-1.1 9.5-1 7.5-1.2 40-.2 48 1.9 17.1 1.7 15.8 3.8 24.5 3.3 13.9 8.5 27.5 15 39.2l4.5 8.3-7.5 15.3C24.4 268 10.7 310.1 5.6 343c-4.3 27.3-5 35.8-5.1 57.5 0 19.5.6 27.4 3.4 43.5 7.9 44.8 27.8 87.8 58.7 126.5 18.2 22.7 46.8 48.6 73.2 66.3 6.8 4.5 12.4 8.2 12.6 8.2.2 0 3.3 1.7 6.7 3.8C182 665 226.6 682.6 258 689.4c16.3 3.6 31.3 6.3 39 7.1 3 .3 6.6.8 8 1 6.7 1.2 20.8 1.9 43.5 1.9 31.8.1 50.2-1.4 73.1-5.8 1.2-.2 3.9-.7 6-1 12.2-2 44.7-11.2 63-18 59.6-22 115.9-63.2 153.1-112.1 26.2-34.6 45.4-77.7 52.2-117.5 1.9-11.1 2.1-12.3 2.8-20 1.4-13.4.5-57.2-1.2-60-.1-.3-.6-3.2-.9-6.5-.3-3.3-.8-7.1-1.1-8.5-.2-1.3-.7-4.2-1.1-6.5-1-6.8-4.3-22.5-7-33-2.7-10.6-13.4-43.3-16.4-50-6.9-15.4-14.5-31.8-16.8-36l-2.8-5 5.3-10.1c8.1-15.5 15-36.4 16.7-50.9.4-2.8 1-8.2 1.5-12 .9-7.4.7-43.2-.2-48.1-.4-1.6-.9-5.2-1.2-7.9-3.3-28.5-7.8-37.2-21.1-41.1-12.2-3.5-20.4 0-32 13.9-9.2 11-16 17.9-25.7 26-8.5 7.2-23.5 17.2-24.4 16.4-7.9-8-24.1-23.3-28.2-26.7-2.9-2.5-5.9-5-6.5-5.5-2.8-2.7-22.9-17.8-30.6-23-25.6-17.4-59.8-33.6-86-40.6-2.5-.7-4.9-1.4-5.5-1.5-5.1-1.5-20.1-4.6-29-5.9-11.9-1.9-45.9-2.7-58-1.4z"/></svg>