<?xml version="1.0" standalone="no"?>
<!DOCTYPE svg PUBLIC "-//W3C//DTD SVG 20010904//EN"
 "http://www.w3.org/TR/2001/REC-SVG-20010904/DTD/svg10.dtd">
<svg version="1.0" xmlns="http://www.w3.org/2000/svg"
 width="700.000000pt" height="700.000000pt" viewBox="0 0 700.000000 700.000000"
 preserveAspectRatio="xMidYMid meet">
<metadata>
Created by potrace 1.14, written by Peter Selinger 2001-2017
</metadata>
<g transform="translate(0.000000,700.000000) scale(0.100000,-0.100000)"
fill="#000000" stroke="none">
<path d="M3329 6996 c-2 -2 -42 -7 -89 -11 -46 -3 -87 -8 -90 -10 -3 -2 -29
-6 -59 -10 -214 -27 -567 -148 -826 -284 -310 -162 -599 -376 -877 -649 l-97
-96 -73 49 c-161 107 -287 220 -425 385 -90 108 -140 140 -227 146 -136 9
-252 -85 -271 -221 -3 -22 -10 -62 -15 -90 -5 -27 -12 -72 -15 -100 -3 -27 -8
-70 -11 -95 -10 -75 -12 -400 -2 -480 19 -171 17 -158 38 -245 33 -139 85
-275 150 -392 l45 -83 -75 -153 c-166 -337 -311 -782 -356 -1097 -3 -19 -7
-46 -9 -60 -3 -14 -7 -47 -11 -75 -3 -27 -8 -57 -9 -66 -19 -97 -26 -468 -13
-609 19 -193 81 -459 153 -656 59 -160 187 -409 287 -559 52 -77 101 -149 110
-160 140 -172 190 -229 297 -335 148 -147 336 -300 503 -411 66 -43 121 -79
123 -79 1 0 32 -17 66 -38 245 -147 614 -299 931 -381 155 -41 374 -84 488
-96 30 -3 66 -8 80 -10 66 -12 207 -19 435 -19 318 -1 502 13 731 58 12 2 39
7 60 10 147 24 559 145 696 204 185 81 300 136 405 194 108 59 240 138 268
160 6 5 55 40 110 80 402 287 749 688 961 1110 144 286 240 614 271 928 14
135 5 572 -12 600 -1 3 -6 32 -9 65 -3 33 -8 71 -11 85 -2 13 -7 42 -11 65
-48 324 -199 786 -363 1111 l-67 132 56 104 c77 144 149 364 164 503 4 28 10
82 15 120 9 74 7 431 -2 481 -4 16 -9 52 -12 79 -25 214 -52 301 -112 358 -43
40 -118 66 -185 63 -87 -4 -140 -36 -227 -141 -101 -123 -228 -245 -336 -325
-98 -72 -164 -114 -170 -109 -376 369 -623 557 -967 738 -314 165 -586 252
-958 306 -47 7 -445 16 -451 11z"/>
</g>
</svg>
