<svg height="512" viewBox="0 0 58 58" width="512" xmlns="http://www.w3.org/2000/svg"><g id="Page-1" fill="none" fill-rule="evenodd"><g id="001---Bored" fill-rule="nonzero"><path id="Shape" d="m47.28 8.79c-4.98-5.19-11.35-8.79-18.28-8.79s-13.3 3.6-18.28 8.79l-6.68 9.35c-2.49047144 4.5691376-3.87421504 9.658848-4.04 14.86 0 13.81 12.98 25 29 25s29-11.19 29-25c-.165785-5.201152-1.5495286-10.2908624-4.04-14.86z" fill="#65ddb9"/><path id="Shape" d="m39 19c0 7.18-4.48 13-10 13s-10-5.82-10-13c0-.35.01-.69.03-1.03 1.2904866-.5437847 2.6254224-.9753805 3.99-1.29 3.9351154-.9066811 8.0248846-.9066811 11.96 0 1.3645776.3146195 2.6995134.7462153 3.99 1.29.02.34.03.68.03 1.03z" fill="#ecf0f1"/><path id="Shape" d="m35 17.5c0 5.8-2.69 9.5-6 9.5s-6-3.7-6-9.5c0-.28.01-.55.02-.82 3.9351154-.9066811 8.0248846-.9066811 11.96 0 .01.27.02.54.02.82z" fill="#f0c419"/><path id="Shape" d="m32 19c0 2.76-1.34 5-3 5s-3-2.24-3-5c-.0058242-.9898859.1809789-1.9714514.55-2.89.78-.07 1.6-.11 2.45-.11s1.68.04 2.46.11c.3607945.9206154.5440214 1.9012183.54 2.89z" fill="#35495e"/><path id="Shape" d="m41 42c0 1.8-1.58 3.41-4.09 4.51-2.5086905 1.026757-5.1996768 1.5336558-7.91 1.49-2.7103232.0436558-5.4013095-.463243-7.91-1.49-2.51-1.1-4.09-2.71-4.09-4.51 0-3.31 5.37-6 12-6s12 2.69 12 6z" fill="#802d40"/><path id="Shape" d="m29 54c-3.25 0-4.491-1.077-4.707-1.293-.3789722-.3923789-.3735524-1.0160848.0121814-1.4018186s1.0094397-.3911536 1.4018186-.0121814c.998195.5703954 2.1486411.8173936 3.293.707 2.445 0 3.31-.724 3.318-.731.4084331-.356744 1.0252598-.3289867 1.4.063.3708401.3850706.3659533.9959117-.011 1.375-.216.216-1.457 1.293-4.707 1.293z" fill="#46b29d"/><path id="Shape" d="m13 9.92c-.1750021 1.9078694-.74001 3.7594615-1.66 5.44-1.13605 2.1173928-3.02302342 3.7332698-5.29 4.53-.14691771.0596263-.30200148.0967116-.46.11-4.03-3.83-3.99-9.75-3.11-14.35.06991242-.37766872.25097656-.72586901.52-1 .44562464-.45618138 1.06970377-.6926926 1.70574075-.64643537.63603698.04625724 1.2193284.37057722 1.59425925.88643537 1.70903616 2.28021583 4.0334209 4.02523899 6.7 5.03z" fill="#f9eab0"/><path id="Shape" d="m52.409 20c4.026-3.834 3.988-9.751 3.115-14.355-.1946856-.81561511-.8471858-1.44275278-1.6698747-1.60496707-.8226889-.16221428-1.664409.1702994-2.1541253.85096707-1.7101659 2.27978159-4.034099 4.02550628-6.7 5.033 0 0 .412 7.664 6.948 9.965.1474695.0591639.3027629.0965556.461.111z" fill="#f9eab0"/><g fill="#46b29d"><circle id="Oval" cx="10" cy="28" r="3"/><circle id="Oval" cx="13" cy="36" r="2"/><circle id="Oval" cx="48" cy="28" r="3"/><circle id="Oval" cx="45" cy="36" r="2"/></g><path id="Shape" d="m26.58 36.12-.97 2.59c-.2802294.7436861-.9741935 1.2508912-1.7678559 1.2920922-.7936623.0412011-1.5364152-.3914204-1.8921441-1.1020922l-.73-1.46c1.7108185-.704908 3.517491-1.1498349 5.36-1.32z" fill="#ecf0f1"/><path id="Shape" d="m36.78 37.44-.73 1.46c-.3557289.7106718-1.0984818 1.1432933-1.8921441 1.1020922-.7936624-.041201-1.4876265-.5484061-1.7678559-1.2920922l-.97-2.59c1.842509.1701651 3.6491815.615092 5.36 1.32z" fill="#ecf0f1"/><path id="Shape" d="m8 39c-.00213131 2.7573219-1.88326566 5.1582434-4.56 5.82-2.17520051-3.4393788-3.36186473-7.4110713-3.43-11.48.63907348-.2260529 1.31212558-.3410467 1.99-.34 3.3137085 0 6 2.6862915 6 6z" fill="#46b29d"/><path id="Shape" d="m57.99 33.34c-.0681353 4.0689287-1.2547995 8.0406212-3.43 11.48-2.1622781-.5171004-3.8613699-2.1874549-4.4152755-4.3405987-.5539056-2.1531437.1281878-4.4360685 1.7724941-5.9324294 1.6443064-1.4963608 3.9812417-1.9608293 6.0727814-1.2069719z" fill="#46b29d"/><circle id="Oval" cx="25" cy="17" fill="#ecf0f1" r="3"/><path id="Shape" d="m38.94 17.97c-2.3918116-1.005457-4.9254005-1.6329504-7.51-1.86-.78-.07-1.6-.11-2.46-.11s-1.67.04-2.45.11c-2.5880074.2259626-5.1250567.8534774-7.52 1.86.41-6.7 4.72-11.97 9.97-11.97s9.56 5.27 9.97 11.97z" fill="#46b29d"/><path id="Shape" d="m13 9.92c-.1750021 1.9078694-.74001 3.7594615-1.66 5.44-4.55414681-1.7429146-7.76610215-5.86761984-8.34-10.71.44562464-.45618138 1.06970377-.6926926 1.70574075-.64643537.63603698.04625724 1.2193284.37057722 1.59425925.88643537 1.70903616 2.28021583 4.0334209 4.02523899 6.7 5.03z" fill="#f5efca"/><path id="Shape" d="m45 9.92c.1750021 1.9078694.74001 3.7594615 1.66 5.44 4.5541468-1.7429146 7.7661021-5.86761984 8.34-10.71-.4456246-.45618138-1.0697038-.6926926-1.7057408-.64643537-.6360369.04625724-1.2193283.37057722-1.5942592.88643537-1.7090362 2.28021583-4.0334209 4.02523899-6.7 5.03z" fill="#f5efca"/><path id="Shape" d="m36.91 46.51c-2.5086905 1.026757-5.1996768 1.5336558-7.91 1.49-2.7103232.0436558-5.4013095-.463243-7.91-1.49.59-3.12 3.9-5.51 7.91-5.51s7.32 2.39 7.91 5.51z" fill="#fb7b76"/></g></g></svg>